<svg width="28" height="28" viewBox="0 0 28 28" fill="none" xmlns="http://www.w3.org/2000/svg">
<g id="Group 1000003377">
<path id="Vector" d="M20.6315 25.3769H2.94736V7.36845H13.2631V4.42108H2.94736C1.32631 4.42108 0 5.7474 0 7.36845V25.0527C0 26.6737 1.32631 28 2.94736 28H20.6315C22.2526 28 23.5789 26.6737 23.5789 25.0527V14.7369H20.6315V25.3769Z" fill="#4D4D4D"/>
<path id="Vector_2" d="M23.579 0H20.6316V4.42105H16.2105C16.2253 4.43579 16.2105 7.36842 16.2105 7.36842H20.6316V11.7747C20.6463 11.7895 23.579 11.7747 23.579 11.7747V7.36842H28V4.42105H23.579V0ZM5.89478 10.3158H17.6842V13.2632H5.89478V10.3158ZM5.89478 14.7368V17.6842H17.6842V14.7368H13.2632H5.89478ZM5.89478 19.1579H17.6842V22.1053H5.89478V19.1579Z" fill="#4D4D4D"/>
</g>
</svg>
