
<svg width="46" height="47" viewBox="0 0 46 47" fill="none" xmlns="http://www.w3.org/2000/svg">
<mask id="path-1-inside-1_300_12131" fill="white">
<path d="M0 12.7266C0 6.09915 5.37258 0.726562 12 0.726562H34C40.6274 0.726562 46 6.09915 46 12.7266V34.7266C46 41.354 40.6274 46.7266 34 46.7266H12C5.37258 46.7266 0 41.354 0 34.7266V12.7266Z"/>
</mask>
<path d="M0 12.7266C0 6.09915 5.37258 0.726562 12 0.726562H34C40.6274 0.726562 46 6.09915 46 12.7266V34.7266C46 41.354 40.6274 46.7266 34 46.7266H12C5.37258 46.7266 0 41.354 0 34.7266V12.7266Z" fill="black" fill-opacity="0.2"/>
<path d="M0 0.726562H46H0ZM46 46.7266H0H46ZM12 46.7266C4.8203 46.7266 -1 40.9063 -1 33.7266V13.7266C-1 6.54686 4.8203 0.726562 12 0.726562C5.92487 0.726562 1 6.09915 1 12.7266V34.7266C1 41.354 5.92487 46.7266 12 46.7266ZM46 0.726562V46.7266V0.726562Z" fill="white" mask="url(#path-1-inside-1_300_12131)"/>
<path d="M7.74224 35.0806L7.70985 35.113C7.27252 34.1573 6.99717 33.0721 6.88379 31.8735C6.99717 33.0559 7.30492 34.1249 7.74224 35.0806Z" fill="white"/>
<path d="M18.1408 21.1024C20.2698 21.1024 21.9957 19.3765 21.9957 17.2475C21.9957 15.1185 20.2698 13.3926 18.1408 13.3926C16.0118 13.3926 14.2859 15.1185 14.2859 17.2475C14.2859 19.3765 16.0118 21.1024 18.1408 21.1024Z" fill="white"/>
<path d="M29.7865 7.5293H16.2133C10.3175 7.5293 6.80273 11.0441 6.80273 16.9399V30.5131C6.80273 32.2786 7.11048 33.8173 7.70978 35.1131C9.10274 38.1906 12.083 39.9237 16.2133 39.9237H29.7865C35.6823 39.9237 39.1971 36.4089 39.1971 30.5131V26.8039V16.9399C39.1971 11.0441 35.6823 7.5293 29.7865 7.5293ZM36.557 24.5363C35.2936 23.4511 33.2527 23.4511 31.9894 24.5363L25.2513 30.3187C23.988 31.404 21.9471 31.404 20.6837 30.3187L20.133 29.8652C18.983 28.861 17.1527 28.7638 15.857 29.6385L9.79921 33.704C9.44288 32.7969 9.23231 31.7441 9.23231 30.5131V16.9399C9.23231 12.3723 11.6457 9.95888 16.2133 9.95888H29.7865C34.3542 9.95888 36.7675 12.3723 36.7675 16.9399V24.7145L36.557 24.5363Z" fill="white"/>
</svg>
