<svg xmlns="http://www.w3.org/2000/svg" width="26" height="26" viewBox="0 0 26 26" fill="none">
<path d="M18.8332 14.266H13.6248V19.4743C13.6248 19.7506 13.5151 20.0155 13.3197 20.2109C13.1244 20.4062 12.8594 20.516 12.5832 20.516C12.3069 20.516 12.042 20.4062 11.8466 20.2109C11.6513 20.0155 11.5415 19.7506 11.5415 19.4743V14.266H6.33317C6.0569 14.266 5.79195 14.1562 5.5966 13.9609C5.40125 13.7655 5.2915 13.5006 5.2915 13.2243C5.2915 12.948 5.40125 12.6831 5.5966 12.4877C5.79195 12.2924 6.0569 12.1826 6.33317 12.1826H11.5415V6.97428C11.5415 6.69802 11.6513 6.43306 11.8466 6.23771C12.042 6.04236 12.3069 5.93262 12.5832 5.93262C12.8594 5.93262 13.1244 6.04236 13.3197 6.23771C13.5151 6.43306 13.6248 6.69802 13.6248 6.97428V12.1826H18.8332C19.1094 12.1826 19.3744 12.2924 19.5697 12.4877C19.7651 12.6831 19.8748 12.948 19.8748 13.2243C19.8748 13.5006 19.7651 13.7655 19.5697 13.9609C19.3744 14.1562 19.1094 14.266 18.8332 14.266Z" fill="#999999"/>
</svg>