<svg width="24" height="22" viewBox="0 0 24 22" fill="none" xmlns="http://www.w3.org/2000/svg">
<g id="Group">
<path id="Vector" fill-rule="evenodd" clip-rule="evenodd" d="M10.105 20.7778C10.105 20.4536 9.97192 20.1427 9.73504 19.9135C9.49816 19.6843 9.17688 19.5556 8.84188 19.5556H2.52625V2.44444H8.84188C9.17688 2.44444 9.49816 2.31567 9.73504 2.08646C9.97192 1.85725 10.105 1.54638 10.105 1.22222C10.105 0.898069 9.97192 0.587192 9.73504 0.357981C9.49816 0.128769 9.17688 0 8.84188 0H2.52625C1.85625 0 1.21369 0.257539 0.739922 0.715961C0.266158 1.17438 0 1.79614 0 2.44444V19.5556C0 20.2039 0.266158 20.8256 0.739922 21.284C1.21369 21.7425 1.85625 22 2.52625 22H8.84188C9.17688 22 9.49816 21.8712 9.73504 21.642C9.97192 21.4128 10.105 21.1019 10.105 20.7778Z" fill="#535353"/>
<path id="Vector_2" d="M23.6387 11.8555C23.8697 11.6283 23.9994 11.3224 23.9999 11.0036V10.9963C23.9993 10.6734 23.8661 10.3639 23.6298 10.1359L18.5773 5.24697C18.4608 5.13024 18.3214 5.03712 18.1673 4.97307C18.0132 4.90901 17.8475 4.8753 17.6797 4.87389C17.512 4.87248 17.3457 4.9034 17.1905 4.96485C17.0352 5.02631 16.8942 5.11706 16.7756 5.23182C16.657 5.34658 16.5632 5.48304 16.4997 5.63325C16.4362 5.78346 16.4042 5.9444 16.4057 6.10668C16.4071 6.26897 16.442 6.42935 16.5082 6.57846C16.5744 6.72758 16.6706 6.86245 16.7913 6.97519L19.6876 9.77775H7.57929C7.24429 9.77775 6.92301 9.90652 6.68612 10.1357C6.44924 10.3649 6.31616 10.6758 6.31616 11C6.31616 11.3241 6.44924 11.635 6.68612 11.8642C6.92301 12.0934 7.24429 12.2222 7.57929 12.2222H19.6876L16.7913 15.0247C16.5612 15.2553 16.4339 15.564 16.4367 15.8845C16.4396 16.2049 16.5725 16.5115 16.8066 16.7381C17.0408 16.9647 17.3577 17.0932 17.6888 17.096C18.02 17.0988 18.3391 16.9756 18.5773 16.753L23.6298 11.8641L23.6387 11.8555Z" fill="#535353"/>
</g>
</svg>
