<svg xmlns="http://www.w3.org/2000/svg" width="28" height="29" viewBox="0 0 28 29" fill="none">
<path d="M25.2928 0.726562H21.3719C19.6781 0.726562 18.6646 1.73993 18.6646 3.43333V7.35348C18.6646 9.04688 19.6781 10.0602 21.3719 10.0602H25.2928C26.9865 10.0602 28.0001 9.04688 28.0001 7.35348V3.43333C28.0001 1.73993 26.9865 0.726562 25.2928 0.726562ZM25.5862 5.14006C25.4262 5.30007 25.2128 5.38007 24.9994 5.38007C24.786 5.38007 24.5726 5.30007 24.4126 5.14006L24.1725 4.90005V7.88683C24.1725 8.35352 23.7991 8.72687 23.3323 8.72687C22.8655 8.72687 22.4921 8.35352 22.4921 7.88683V4.90005L22.2521 5.14006C21.932 5.46007 21.3985 5.46007 21.0785 5.14006C20.7584 4.82005 20.7584 4.2867 21.0785 3.96669L22.7455 2.29996C22.8122 2.23329 22.9056 2.17995 22.9989 2.13995C23.0256 2.12662 23.0523 2.12662 23.0789 2.11328C23.1456 2.08661 23.2123 2.07328 23.2923 2.07328C23.319 2.07328 23.3457 2.07328 23.3723 2.07328C23.4657 2.07328 23.5457 2.08661 23.6391 2.12662C23.6524 2.12662 23.6524 2.12662 23.6657 2.12662C23.7591 2.16662 23.8391 2.21995 23.9058 2.28662C23.9191 2.29996 23.9191 2.29996 23.9325 2.29996L25.5995 3.96669C25.9196 4.2867 25.9196 4.82005 25.5862 5.14006Z" fill="#666666" fill-opacity="0.6"/>
<path d="M9.33253 13.2331C11.0855 13.2331 12.5066 11.8123 12.5066 10.0597C12.5066 8.30703 11.0855 6.88623 9.33253 6.88623C7.57953 6.88623 6.15845 8.30703 6.15845 10.0597C6.15845 11.8123 7.57953 13.2331 9.33253 13.2331Z" fill="#666666" fill-opacity="0.6"/>
<path d="M25.2993 10.0594H24.6725V16.2063L24.4991 16.0596C23.4589 15.1662 21.7785 15.1662 20.7382 16.0596L15.1902 20.8198C14.15 21.7131 12.4696 21.7131 11.4294 20.8198L10.9759 20.4464C10.029 19.6197 8.52201 19.5397 7.45509 20.2597L2.46725 23.6065C2.17384 22.8598 2.00047 21.9931 2.00047 20.9798V9.80603C2.00047 6.04589 3.98761 4.05915 7.74849 4.05915H18.6711V3.43247C18.6711 2.89911 18.7644 2.44576 18.9778 2.05908H7.74849C2.89401 2.05908 0 4.95252 0 9.80603V20.9798C0 22.4332 0.253393 23.6999 0.746842 24.7666C1.89378 27.3 4.34769 28.7267 7.74849 28.7267H18.9245C23.7789 28.7267 26.6729 25.8333 26.6729 20.9798V9.7527C26.2862 9.96604 25.8327 10.0594 25.2993 10.0594Z" fill="#666666" fill-opacity="0.6"/>
</svg>