<svg xmlns="http://www.w3.org/2000/svg" width="16" height="17" viewBox="0 0 16 17" fill="none">
<path d="M0 11.4475C0.097303 11.2064 0.242331 11.0117 0.511739 10.9508C0.95381 10.8508 1.33145 11.1671 1.33429 11.6439C1.33832 12.32 1.33538 12.996 1.33543 13.6721C1.33545 14.0205 1.33331 14.3689 1.33609 14.7173C1.3394 15.1319 1.59372 15.3892 2.00766 15.3902C3.03215 15.3928 4.05666 15.3891 5.08115 15.3922C5.54116 15.3936 5.84687 15.7347 5.78171 16.1677C5.74656 16.4013 5.6122 16.5642 5.4013 16.6663C5.36045 16.6861 5.3199 16.7065 5.27921 16.7266H1.71809C1.69576 16.715 1.67231 16.7057 1.64809 16.6989C1.10972 16.6048 0.684993 16.3308 0.362722 15.8922C0.168261 15.6275 0.0742463 15.3222 0 15.0085V11.4475Z" fill="white"/>
<path d="M10.7146 16.7266C10.6738 16.7065 10.6335 16.6854 10.5922 16.6665C10.4604 16.6076 10.3515 16.5071 10.2824 16.3804C10.2132 16.2536 10.1876 16.1077 10.2094 15.965C10.2272 15.8272 10.2888 15.6988 10.3851 15.5987C10.4813 15.4986 10.6072 15.4321 10.7441 15.409C10.8211 15.3965 10.899 15.3908 10.977 15.3919C11.9609 15.3908 12.9449 15.3905 13.9289 15.391C14.416 15.3907 14.6579 15.1497 14.6582 14.6638C14.6589 13.659 14.6566 12.6542 14.6593 11.6495C14.6605 11.1937 14.9914 10.8881 15.416 10.9408C15.7315 10.98 15.9882 11.2406 15.99 11.5623C15.9962 12.6712 16.0118 13.7806 15.9841 14.8888C15.9619 15.7754 15.258 16.5335 14.3769 16.6951C14.3425 16.7035 14.3088 16.714 14.2757 16.7266H10.7146Z" fill="white"/>
<path d="M0 2.4512C0.0768385 2.12668 0.174493 1.81104 0.381786 1.54106C0.780755 1.02144 1.30474 0.739301 1.96215 0.735042C3.00331 0.728296 4.04455 0.732384 5.08576 0.733594C5.49324 0.734067 5.78502 1.0072 5.79164 1.38888C5.79831 1.77363 5.50366 2.0657 5.0914 2.06721C4.07103 2.07094 3.05065 2.07094 2.03026 2.06722C1.82135 2.06661 1.64116 2.12005 1.49761 2.27774C1.37053 2.41735 1.33386 2.58347 1.33429 2.76746C1.3367 3.7774 1.33688 4.78735 1.33484 5.7973C1.33419 6.19828 1.10245 6.4789 0.745619 6.51985C0.602485 6.53846 0.457202 6.50946 0.332186 6.4373C0.20717 6.36514 0.109366 6.25384 0.0538628 6.12057C0.0375608 6.08373 0.0180334 6.04831 0 6.01223V2.4512Z" fill="white"/>
<path d="M2.33508 5.61418C2.33507 5.01048 2.3341 4.40679 2.33537 3.8031C2.33637 3.32901 2.59522 3.06903 3.06825 3.06852C4.12994 3.0674 5.19164 3.06742 6.25333 3.0686C6.71475 3.06916 6.9814 3.3315 6.98245 3.79396C6.9852 5.01175 6.98515 6.22954 6.98231 7.44734C6.98115 7.90463 6.70766 8.16817 6.24672 8.16847C5.18502 8.16916 4.12333 8.16914 3.06164 8.16841C2.60247 8.16803 2.33672 7.90204 2.33549 7.44087C2.33386 6.83197 2.33509 6.22307 2.33508 5.61418ZM5.64137 6.82415V4.40776H3.67114V6.82415L5.64137 6.82415Z" fill="white"/>
<path d="M7.6508 8.82246C7.6508 8.73553 7.6508 8.67353 7.6508 8.61153C7.65083 7.19594 7.65112 5.78035 7.65166 4.36477C7.6524 3.8887 8.06413 3.56761 8.50268 3.70103C8.77061 3.78253 8.92986 3.96838 8.97131 4.24787C8.97987 4.31495 8.98352 4.38256 8.98222 4.45018C8.98279 6.08955 8.98288 7.72893 8.98251 9.36831C8.98237 9.90222 8.73162 10.153 8.19933 10.1531C6.48705 10.1533 4.77477 10.1531 3.06249 10.1526C2.6413 10.1524 2.35051 9.89553 2.33694 9.51903C2.32291 9.12957 2.60699 8.82583 2.99775 8.82354C3.62748 8.81986 4.25724 8.82248 4.88699 8.82246C5.74573 8.82245 6.60447 8.82244 7.46322 8.82246L7.6508 8.82246Z" fill="white"/>
<path d="M4.57493 14.3916C4.07015 14.3915 3.56537 14.3929 3.06059 14.3911C2.59843 14.3895 2.3364 14.1271 2.33549 13.6643C2.33397 12.8993 2.33396 12.1344 2.33547 11.3694C2.33637 10.9018 2.60322 10.6373 3.07413 10.6368C4.07849 10.6357 5.08284 10.6357 6.0872 10.6368C6.5621 10.6373 6.83199 10.9073 6.83289 11.383C6.83432 12.1376 6.83433 12.8921 6.83292 13.6467C6.83207 14.1258 6.56733 14.3902 6.08927 14.3913C5.58449 14.3925 5.07971 14.3916 4.57493 14.3916ZM5.48922 11.9834H3.67246V13.0544H5.48922L5.48922 11.9834Z" fill="white"/>
<path d="M10.4959 13.0547H12.321V11.0648C12.0952 11.0648 11.8735 11.0689 11.652 11.0631C11.5431 11.0644 11.4346 11.0511 11.3292 11.0236C11.1844 10.9765 11.0602 10.8809 10.9778 10.7527C10.8955 10.6246 10.8599 10.4719 10.8773 10.3206C10.9191 9.99991 11.173 9.74136 11.49 9.73431C12.01 9.72274 12.5308 9.72128 13.0507 9.73506C13.2118 9.74176 13.3643 9.8101 13.4765 9.92596C13.5887 10.0418 13.6522 10.1964 13.6538 10.3577C13.6608 11.4918 13.6609 12.626 13.6542 13.7602C13.6541 13.8427 13.6378 13.9245 13.606 14.0007C13.5743 14.0769 13.5279 14.1462 13.4694 14.2044C13.4109 14.2627 13.3415 14.3088 13.2652 14.3402C13.1888 14.3716 13.107 14.3876 13.0245 14.3873C11.9527 14.3942 10.881 14.3944 9.80915 14.388C9.44567 14.3859 9.17065 14.1123 9.1649 13.739C9.15391 13.0264 9.15376 12.3137 9.16443 11.6008C9.17019 11.209 9.47062 10.9364 9.85085 10.9444C10.2161 10.9522 10.4924 11.2423 10.4952 11.6281C10.4982 12.0443 10.4959 12.4605 10.4959 12.8767C10.4959 12.9329 10.4959 12.9891 10.4959 13.0547Z" fill="white"/>
<path d="M13.6587 5.10442C13.6587 5.53613 13.6602 5.96785 13.6583 6.39956C13.6563 6.85722 13.3889 7.12472 12.9291 7.12576C12.0657 7.12769 11.2023 7.12772 10.3388 7.12584C9.87191 7.12489 9.60177 6.85524 9.60072 6.38851C9.59878 5.52509 9.5988 4.66166 9.60078 3.79823C9.60194 3.33697 9.86859 3.06954 10.3262 3.06866C11.1949 3.067 12.0635 3.06698 12.9322 3.0686C13.3946 3.06939 13.6564 3.33145 13.6583 3.79368C13.6602 4.23059 13.6587 4.66751 13.6587 5.10442ZM10.9405 5.78274H12.3199V4.40632H10.9406L10.9405 5.78274Z" fill="white"/>
<path d="M15.9935 4.22795C15.9935 4.77459 15.997 5.32127 15.9922 5.86787C15.9919 6.02296 15.9368 6.17295 15.8367 6.29136C15.7365 6.40976 15.5978 6.48896 15.4449 6.51497C15.113 6.56763 14.8049 6.39393 14.7036 6.08302C14.6727 5.9785 14.6581 5.86987 14.6602 5.76091C14.6571 4.77696 14.6459 3.79276 14.664 2.80913C14.6722 2.36075 14.3814 2.05356 13.9109 2.06268C12.9169 2.08196 11.9222 2.06969 10.9278 2.06794C10.5106 2.0672 10.2207 1.80902 10.2029 1.42996C10.1855 1.06161 10.4661 0.738873 10.8354 0.736624C11.9391 0.729903 13.0433 0.715517 14.1465 0.741543C15.1395 0.764973 15.972 1.63902 15.991 2.63491C16.0011 3.16574 15.9928 3.69692 15.9928 4.22795L15.9935 4.22795Z" fill="white"/>
<path d="M10.8309 9.07587C10.8309 9.16719 10.8342 9.24364 10.8304 9.31973C10.8107 9.71374 10.5273 9.9884 10.1483 9.98302C9.77601 9.97773 9.49966 9.68559 9.49676 9.291C9.49473 9.01534 9.49554 8.73965 9.49652 8.46398C9.49811 8.01964 9.76555 7.74879 10.2189 7.7453C10.8431 7.7405 11.4673 7.74366 12.0915 7.74401C12.4504 7.74422 12.8097 7.73459 13.168 7.74923C13.6191 7.76767 13.9066 8.14832 13.8071 8.57205C13.7722 8.71751 13.6887 8.84668 13.5704 8.93815C13.452 9.02962 13.306 9.0779 13.1565 9.07499C12.4439 9.0775 11.7312 9.07584 11.0186 9.07587C10.9626 9.07588 10.9066 9.07587 10.8309 9.07587Z" fill="white"/>
<path d="M8.68014 12.106C8.68014 12.3454 8.68228 12.5849 8.67967 12.8242C8.67521 13.2323 8.38215 13.5358 8.00273 13.5289C7.62519 13.522 7.34591 13.2249 7.344 12.8223C7.34173 12.3435 7.34174 11.8647 7.34404 11.3859C7.3461 10.9833 7.62624 10.6879 8.0046 10.6832C8.38752 10.6785 8.67541 10.9775 8.67969 11.3879C8.68219 11.6272 8.68014 11.8666 8.68014 12.106Z" fill="white"/>
</svg>