<svg width="40" height="41" viewBox="0 0 40 41" fill="none" xmlns="http://www.w3.org/2000/svg">
<g id="Group 629325">
<circle id="Ellipse 69" cx="20" cy="20.2266" r="20" fill="#E6E9FD"/>
<path id="Vector" d="M10 22.2266C10.5304 22.2266 11.0391 22.0158 11.4142 21.6408C11.7893 21.2657 12 20.757 12 20.2266C12 19.6961 11.7893 19.1874 11.4142 18.8123C11.0391 18.4373 10.5304 18.2266 10 18.2266C9.46957 18.2266 8.96086 18.4373 8.58579 18.8123C8.21071 19.1874 8 19.6961 8 20.2266C8 20.757 8.21071 21.2657 8.58579 21.6408C8.96086 22.0158 9.46957 22.2266 10 22.2266ZM20 22.2266C20.5304 22.2266 21.0391 22.0158 21.4142 21.6408C21.7893 21.2657 22 20.757 22 20.2266C22 19.6961 21.7893 19.1874 21.4142 18.8123C21.0391 18.4373 20.5304 18.2266 20 18.2266C19.4696 18.2266 18.9609 18.4373 18.5858 18.8123C18.2107 19.1874 18 19.6961 18 20.2266C18 20.757 18.2107 21.2657 18.5858 21.6408C18.9609 22.0158 19.4696 22.2266 20 22.2266ZM30 22.2266C30.5304 22.2266 31.0391 22.0158 31.4142 21.6408C31.7893 21.2657 32 20.757 32 20.2266C32 19.6961 31.7893 19.1874 31.4142 18.8123C31.0391 18.4373 30.5304 18.2266 30 18.2266C29.4696 18.2266 28.9609 18.4373 28.5858 18.8123C28.2107 19.1874 28 19.6961 28 20.2266C28 20.757 28.2107 21.2657 28.5858 21.6408C28.9609 22.0158 29.4696 22.2266 30 22.2266Z" fill="#474747" stroke="#474747"/>
</g>
</svg>
