<svg width="15" height="17" viewBox="0 0 15 17" fill="none" xmlns="http://www.w3.org/2000/svg">
<g id="Vector">
<path d="M7.50639 0.726563C8.35423 0.72734 9.18277 0.978548 9.88717 1.44839C10.5916 1.91824 11.1401 2.5856 11.4635 3.36602C11.7868 4.14643 11.8703 5.00482 11.7035 5.83253C11.5367 6.66025 11.1271 7.42009 10.5264 8.01588C9.92573 8.61167 9.16105 9.01663 8.32914 9.1795C7.49724 9.34238 6.6355 9.25586 5.85301 8.93088C5.07051 8.6059 4.40242 8.05707 3.9333 7.35386C3.46418 6.65066 3.21512 5.82468 3.21763 4.98046C3.22148 3.85057 3.6751 2.76829 4.47904 1.97089C5.28298 1.17348 6.37165 0.726006 7.50639 0.726563Z" fill="white"/>
<path d="M7.20711 10.3262C5.90612 12.7127 6.2302 14.8325 8.17675 16.7266H8.02089C5.91769 16.7266 3.8145 16.7265 1.71131 16.7264C0.686423 16.7261 0.00166124 16.0449 0.00463931 15.0227C0.00661085 14.3459 -0.0358793 13.6663 0.102875 12.9963C0.515184 11.0055 1.64402 9.57463 3.48938 8.70384C3.55607 8.67226 3.60988 8.65005 3.67952 8.71983C4.63376 9.67605 5.78979 10.2021 7.13729 10.315C7.16471 10.3173 7.19178 10.3237 7.20711 10.3262Z" fill="white"/>
<path d="M7.50244 12.9966C7.50264 12.504 7.6006 12.0163 7.79069 11.5616C7.98078 11.1068 8.25926 10.6939 8.61012 10.3467C8.96098 9.99947 9.3773 9.7247 9.83515 9.53819C10.293 9.35169 10.7834 9.25712 11.278 9.25993C13.3143 9.26598 15.005 10.9489 15 12.9648C14.9947 15.08 13.3269 16.7308 11.2004 16.7254C9.17774 16.7203 7.49905 15.0276 7.50244 12.9966ZM11.7873 12.4599C11.7873 12.3 11.7874 12.167 11.7873 12.0339C11.7869 11.6376 11.5787 11.3909 11.2469 11.3936C10.9209 11.3963 10.7165 11.6397 10.7161 12.0259C10.7159 12.1678 10.7161 12.3096 10.7161 12.4599C10.5315 12.4599 10.3705 12.4583 10.2095 12.4602C9.88263 12.4641 9.64574 12.6886 9.64537 12.9924C9.645 13.2949 9.88352 13.5219 10.2088 13.5261C10.3739 13.5283 10.5391 13.5265 10.7161 13.5265C10.7161 13.6898 10.7158 13.8331 10.7161 13.9764C10.7169 14.3458 10.9276 14.5902 11.2472 14.5926C11.574 14.5951 11.7866 14.3496 11.7873 13.9687C11.7875 13.826 11.7873 13.6833 11.7873 13.5264C11.9706 13.5264 12.1365 13.5286 12.3024 13.526C12.6247 13.5208 12.8624 13.2878 12.8579 12.9846C12.8535 12.689 12.6173 12.4651 12.3019 12.4604C12.1361 12.4579 11.9702 12.4599 11.7873 12.4599Z" fill="white"/>
</g>
</svg>
