<svg width="26" height="15" viewBox="0 0 26 15" fill="none" xmlns="http://www.w3.org/2000/svg">
<path id="Vector" d="M20.5833 12.8568V14.9997H7.58333V12.8568C7.58333 12.8568 7.58333 8.57109 14.0833 8.57109C20.5833 8.57109 20.5833 12.8568 20.5833 12.8568ZM17.3333 3.21395C17.3333 2.57823 17.1427 1.95678 16.7856 1.42819C16.4285 0.899603 15.9209 0.48762 15.3271 0.244339C14.7332 0.00105701 14.0797 -0.0625966 13.4493 0.0614273C12.8189 0.185451 12.2398 0.491582 11.7852 0.941108C11.3307 1.39063 11.0212 1.96336 10.8958 2.58688C10.7704 3.21039 10.8347 3.85667 11.0807 4.44401C11.3267 5.03134 11.7433 5.53334 12.2777 5.88653C12.8122 6.23972 13.4405 6.42824 14.0833 6.42824C14.9453 6.42824 15.7719 6.08959 16.3814 5.48679C16.9909 4.884 17.3333 4.06643 17.3333 3.21395ZM20.8 8.63538C21.3922 9.1757 21.8696 9.82728 22.2044 10.5521C22.5392 11.2769 22.7247 12.0604 22.75 12.8568V14.9997H26V12.8568C26 12.8568 26 9.16038 20.8 8.63538ZM19.5 -0.00033447C19.1727 -0.000140742 18.8474 0.0504655 18.5358 0.149665C19.1696 1.04856 19.5095 2.11808 19.5095 3.21395C19.5095 4.30983 19.1696 5.37934 18.5358 6.27824C18.8474 6.37744 19.1727 6.42804 19.5 6.42824C20.362 6.42824 21.1886 6.08959 21.7981 5.48679C22.4076 4.884 22.75 4.06643 22.75 3.21395C22.75 2.36147 22.4076 1.5439 21.7981 0.941108C21.1886 0.338313 20.362 -0.00033447 19.5 -0.00033447ZM8.66667 5.35681H5.41667V2.14252H3.25V5.35681H0V7.49967H3.25V10.714H5.41667V7.49967H8.66667V5.35681Z" fill="#333333"/>
</svg>
