<svg width="42" height="43" viewBox="0 0 42 43" fill="none" xmlns="http://www.w3.org/2000/svg">
<path d="M20.9995 28.1967V28.3892C20.9995 28.8792 20.6145 29.2642 20.1245 29.2642H4.37451C3.88451 29.2642 3.49951 28.8792 3.49951 28.3892V28.1967C3.49951 25.1167 4.26951 24.3467 7.38451 24.3467H17.1145C20.2295 24.3467 20.9995 25.1167 20.9995 28.1967Z" fill="white"/>
<path d="M4.37451 31.0137C3.88451 31.0137 3.49951 31.3987 3.49951 31.8887V33.6387V35.3712C3.49951 38.4512 4.26951 39.2212 7.38451 39.2212H17.1145C20.2295 39.2212 20.9995 38.4512 20.9995 35.3712V33.6387V31.8887C20.9995 31.3987 20.6145 31.0137 20.1245 31.0137H4.37451Z" fill="white"/>
<path d="M38.5 26.9717C38.5 33.7442 33.0225 39.2217 26.25 39.2217L28.0875 36.1592" stroke="white" stroke-width="1.5" stroke-linecap="round" stroke-linejoin="round"/>
<path d="M3.49951 16.4727C3.49951 9.70016 8.97701 4.22266 15.7495 4.22266L13.912 7.28516" stroke="white" stroke-width="1.5" stroke-linecap="round" stroke-linejoin="round"/>
<path d="M32.3745 19.9727C36.7238 19.9727 40.2495 16.4469 40.2495 12.0977C40.2495 7.74841 36.7238 4.22266 32.3745 4.22266C28.0253 4.22266 24.4995 7.74841 24.4995 12.0977C24.4995 16.4469 28.0253 19.9727 32.3745 19.9727Z" fill="white"/>
</svg>
