<svg width="16" height="17" viewBox="0 0 16 17" fill="none" xmlns="http://www.w3.org/2000/svg">
<g id="Vector">
<path d="M16 9.22919C15.9608 9.51806 15.9307 9.80851 15.8809 10.0955C15.628 11.5992 14.933 12.9929 13.885 14.0979C13.857 14.1278 13.832 14.1607 13.778 14.2251C13.8288 14.2545 13.8769 14.2883 13.9218 14.326C14.3544 14.7568 14.7865 15.1881 15.2137 15.6243C15.2586 15.6701 15.3078 15.7623 15.29 15.8068C15.2719 15.8389 15.2471 15.8667 15.2173 15.8883C15.1874 15.9098 15.1533 15.9246 15.1172 15.9317C14.5627 16.0239 14.0063 16.1053 13.4506 16.1904C12.3186 16.3637 11.1867 16.5371 10.0548 16.7106C10.0187 16.7162 9.98264 16.7218 9.94635 16.7247C9.78357 16.7375 9.73233 16.6852 9.75643 16.5276C9.85265 15.8982 9.94933 15.2688 10.0465 14.6394C10.2078 13.5817 10.3687 12.5238 10.5291 11.4659C10.5304 11.4241 10.5382 11.3828 10.5522 11.3435C10.5832 11.2833 10.6177 11.1972 10.6682 11.1826C10.7194 11.1678 10.807 11.2109 10.8522 11.2556C11.323 11.7217 11.7885 12.1932 12.2551 12.6629C13.3594 11.6559 14.2103 9.62334 13.7103 7.48455C13.3928 6.12658 12.678 5.01749 11.5487 4.19587C10.4205 3.37503 9.14584 3.05299 7.74601 3.14942L8.07619 0.985521C8.58548 0.960652 9.0959 0.998554 9.59599 1.09838C12.7518 1.75062 14.793 3.63604 15.7219 6.72242C15.8576 7.17299 15.8905 7.65463 15.971 8.12189C15.9806 8.17745 15.9902 8.233 16 8.28852V9.22919Z" fill="#3582CD"/>
<path d="M8.24586 14.3055C8.13499 15.033 8.02679 15.7429 7.91888 16.4509C6.01131 16.5782 3.05869 15.725 1.23903 12.9421C-0.566423 10.1809 -0.5287 6.04059 2.22586 3.21747C2.17256 3.19613 2.12235 3.16774 2.07656 3.13305C1.64316 2.70317 1.21244 2.27058 0.784416 1.83529C0.73666 1.78646 0.682402 1.68441 0.702968 1.64234C0.731873 1.58322 0.824084 1.53191 0.895971 1.52067C2.58267 1.2569 4.26992 0.996576 5.95769 0.739705C6.21691 0.699834 6.26033 0.74142 6.22197 0.993981C5.96725 2.67093 5.71289 4.34794 5.45889 6.025C5.45807 6.05638 5.45147 6.08734 5.43943 6.11632C5.40441 6.17438 5.37129 6.25419 5.31824 6.27426C5.27475 6.29072 5.18929 6.24836 5.14699 6.20689C4.79677 5.86361 4.45167 5.51506 4.10637 5.16675C3.98163 5.04092 3.86056 4.91142 3.73824 4.78403C2.56525 5.88311 1.76083 7.95498 2.31177 10.0952C2.65354 11.4229 3.37618 12.5022 4.49682 13.2965C5.61583 14.0896 6.87239 14.4 8.24586 14.3055Z" fill="#3582CD"/>
</g>
</svg>
