<svg width="24" height="25" viewBox="0 0 24 25" fill="none" xmlns="http://www.w3.org/2000/svg">
<g id="fluent:contact-card-28-regular">
<g id="Group">
<path id="Vector" d="M12.915 10.3319C12.915 10.1495 12.9874 9.97465 13.1164 9.8457C13.2453 9.71674 13.4202 9.6443 13.6026 9.6443H18.6451C18.8275 9.6443 19.0024 9.71674 19.1313 9.8457C19.2603 9.97465 19.3327 10.1495 19.3327 10.3319C19.3327 10.5143 19.2603 10.6892 19.1313 10.8181C19.0024 10.9471 18.8275 11.0195 18.6451 11.0195H13.6026C13.4202 11.0195 13.2453 10.9471 13.1164 10.8181C12.9874 10.6892 12.915 10.5143 12.915 10.3319ZM13.6026 13.3116C13.4202 13.3116 13.2453 13.384 13.1164 13.513C12.9874 13.6419 12.915 13.8168 12.915 13.9992C12.915 14.1816 12.9874 14.3565 13.1164 14.4854C13.2453 14.6144 13.4202 14.6868 13.6026 14.6868H18.6451C18.8275 14.6868 19.0024 14.6144 19.1313 14.4854C19.2603 14.3565 19.3327 14.1816 19.3327 13.9992C19.3327 13.8168 19.2603 13.6419 19.1313 13.513C19.0024 13.384 18.8275 13.3116 18.6451 13.3116H13.6026ZM9.47691 10.3319C9.47691 10.7574 9.30788 11.1655 9.00699 11.4664C8.7061 11.7673 8.298 11.9363 7.87248 11.9363C7.44696 11.9363 7.03886 11.7673 6.73797 11.4664C6.43708 11.1655 6.26804 10.7574 6.26804 10.3319C6.26804 9.90639 6.43708 9.4983 6.73797 9.19741C7.03886 8.89652 7.44696 8.72748 7.87248 8.72748C8.298 8.72748 8.7061 8.89652 9.00699 9.19741C9.30788 9.4983 9.47691 9.90639 9.47691 10.3319ZM5.58043 12.8532H10.1645C10.4077 12.8532 10.6409 12.9498 10.8128 13.1217C10.9848 13.2936 11.0813 13.5268 11.0813 13.77V14.2284C11.0813 14.2284 10.6229 16.5204 7.87248 16.5204C5.12202 16.5204 4.66361 14.2284 4.66361 14.2284V13.77C4.66361 13.5268 4.7602 13.2936 4.93214 13.1217C5.10408 12.9498 5.33727 12.8532 5.58043 12.8532ZM1 5.74782C1 5.07914 1.26563 4.43785 1.73846 3.96502C2.21128 3.49219 2.85258 3.22656 3.52125 3.22656H20.4787C21.1474 3.22656 21.7887 3.49219 22.2615 3.96502C22.7344 4.43785 23 5.07914 23 5.74782V19.0417C23 19.7104 22.7344 20.3517 22.2615 20.8245C21.7887 21.2973 21.1474 21.563 20.4787 21.563H3.52217C2.85349 21.563 2.2122 21.2973 1.73937 20.8245C1.26655 20.3517 1.00092 19.7104 1.00092 19.0417V5.74782H1ZM3.52125 4.60179C2.88865 4.60179 2.37523 5.11521 2.37523 5.74782V19.0417C2.37523 19.6743 2.88865 20.1877 3.52125 20.1877H20.4787C21.1114 20.1877 21.6248 19.6743 21.6248 19.0417V5.74782C21.6248 5.11521 21.1114 4.60179 20.4787 4.60179H3.52217H3.52125Z" fill="#474747"/>
</g>
</g>
</svg>
