<svg width="16" height="17" viewBox="0 0 16 17" fill="none" xmlns="http://www.w3.org/2000/svg">
<g id="Group 634126">
<g id="Group 634125">
<path id="Vector" d="M1.75 4.52637H3.15H14.35" stroke="white" stroke-width="2" stroke-linecap="round" stroke-linejoin="round"/>
<path id="Vector_2" d="M5.24844 4.52656V3.12656C5.24844 2.75526 5.39594 2.39916 5.65849 2.13661C5.92104 1.87406 6.27713 1.72656 6.64844 1.72656H9.44844C9.81974 1.72656 10.1758 1.87406 10.4384 2.13661C10.7009 2.39916 10.8484 2.75526 10.8484 3.12656V4.52656M12.9484 4.52656V14.3266C12.9484 14.6979 12.8009 15.054 12.5384 15.3165C12.2758 15.5791 11.9197 15.7266 11.5484 15.7266H4.54844C4.17713 15.7266 3.82104 15.5791 3.55849 15.3165C3.29594 15.054 3.14844 14.6979 3.14844 14.3266V4.52656H12.9484Z" stroke="white" stroke-width="2" stroke-linecap="round" stroke-linejoin="round"/>
<path id="Vector_3" d="M6.64844 8.02637V12.2264" stroke="white" stroke-width="2" stroke-linecap="round" stroke-linejoin="round"/>
<path id="Vector_4" d="M9.44922 8.02637V12.2264" stroke="white" stroke-width="2" stroke-linecap="round" stroke-linejoin="round"/>
</g>
</g>
</svg>
