<svg width="16" height="16" viewBox="0 0 16 16" fill="none" xmlns="http://www.w3.org/2000/svg">
<g id="Group 634129">
<g id="Group 634128">
<path id="Vector" d="M7.26201 2.47583H2.39156C2.02249 2.47583 1.66855 2.62244 1.40758 2.88341C1.14661 3.14438 1 3.49832 1 3.86739V13.6083C1 13.9774 1.14661 14.3313 1.40758 14.5923C1.66855 14.8532 2.02249 14.9999 2.39156 14.9999H12.1325C12.5015 14.9999 12.8555 14.8532 13.1165 14.5923C13.3774 14.3313 13.524 13.9774 13.524 13.6083V8.73784" stroke="#474747" stroke-width="2" stroke-linecap="round" stroke-linejoin="round"/>
<path id="Vector_2" d="M12.4776 1.4323C12.7544 1.1555 13.1298 1 13.5212 1C13.9127 1 14.2881 1.1555 14.5649 1.4323C14.8417 1.7091 14.9972 2.08452 14.9972 2.47597C14.9972 2.86742 14.8417 3.24284 14.5649 3.51964L7.95499 10.1295L5.17188 10.8253L5.86765 8.04221L12.4776 1.4323Z" stroke="#474747" stroke-width="2" stroke-linecap="round" stroke-linejoin="round"/>
</g>
</g>
</svg>
