<svg width="24" height="26" viewBox="0 0 24 26" fill="none" xmlns="http://www.w3.org/2000/svg">
<g id="XMLID 92">
<path id="XMLID 93" d="M11.976 0.726562C5.37245 0.726562 0 6.33406 0 13.2266C0 20.1191 5.37245 25.7266 11.976 25.7266C18.5796 25.7266 23.9521 20.1191 23.9521 13.2266C23.9521 6.33406 18.5796 0.726562 11.976 0.726562ZM11.976 23.4538C6.57311 23.4538 2.17746 18.8659 2.17746 13.2266C2.17746 7.58724 6.57311 2.99929 11.976 2.99929C17.379 2.99929 21.7746 7.58724 21.7746 13.2266C21.7746 18.8659 17.379 23.4538 11.976 23.4538Z" fill="#474747"/>
<path id="XMLID 104" d="M15.3865 16.9872C13.5229 18.9479 10.491 18.948 8.62751 16.9873C8.13642 16.4704 7.34003 16.4704 6.84885 16.9873C6.35767 17.5041 6.35767 18.342 6.84885 18.8588C8.27116 20.3554 10.1387 21.1034 12.0071 21.1034C13.8749 21.1034 15.7433 20.3551 17.1653 18.8588C17.6565 18.3421 17.6565 17.5041 17.1653 16.9873C16.674 16.4704 15.8776 16.4704 15.3865 16.9872Z" fill="#474747"/>
<path id="XMLID 105" d="M7.8274 11.8578C8.14015 11.5296 8.31875 11.0743 8.31875 10.6102C8.31875 10.1462 8.14015 9.69092 7.8274 9.36271C7.51549 9.03451 7.08283 8.8457 6.64179 8.8457C6.19983 8.8457 5.7681 9.03451 5.45611 9.36271C5.14344 9.69092 4.96484 10.1462 4.96484 10.6102C4.96484 11.0743 5.14344 11.5296 5.45611 11.8578C5.7681 12.1869 6.20076 12.3748 6.64179 12.3748C7.08283 12.3748 7.51549 12.1869 7.8274 11.8578Z" fill="#474747"/>
<path id="XMLID 106" d="M17.3723 8.8457C16.9312 8.8457 16.4986 9.03451 16.1866 9.36271C15.8747 9.69092 15.6953 10.1453 15.6953 10.6102C15.6953 11.0752 15.8747 11.5296 16.1866 11.8578C16.4986 12.1869 16.9312 12.3748 17.3723 12.3748C17.8133 12.3748 18.246 12.1869 18.5579 11.8578C18.8698 11.5296 19.0492 11.0752 19.0492 10.6102C19.0492 10.1462 18.8697 9.69092 18.5579 9.36271C18.246 9.03451 17.8133 8.8457 17.3723 8.8457Z" fill="#474747"/>
</g>
</svg>
