<svg width="24" height="25" viewBox="0 0 24 25" fill="none" xmlns="http://www.w3.org/2000/svg">
<g id="fluent:clipboard-image-24-regular" clip-path="url(#clip0_279_19805)">
<g id="Group">
<path id="Vector" d="M12.9203 0.226563C14.3357 0.226563 15.4992 1.29601 15.6508 2.67101H17.8056C18.5024 2.67092 19.1732 2.93537 19.6826 3.4109C20.1919 3.88644 20.5018 4.5376 20.5494 5.23278L20.5556 5.42101V7.25067C20.5555 7.48292 20.4673 7.70649 20.3087 7.8762C20.1501 8.0459 19.9331 8.1491 19.7014 8.16493C19.4697 8.18076 19.2406 8.10804 19.0604 7.96148C18.8802 7.81491 18.7624 7.60542 18.7308 7.37534L18.7222 7.25067V5.42101C18.7222 5.19949 18.642 4.98548 18.4964 4.81854C18.3508 4.65159 18.1497 4.54302 17.9302 4.5129L17.8056 4.50434H15.1998C14.7072 5.23767 13.87 5.71801 12.9203 5.71801H8.63522C8.18483 5.71842 7.74127 5.60791 7.34372 5.39624C6.94617 5.18457 6.60686 4.87825 6.35578 4.50434H3.75C3.52849 4.50435 3.31447 4.58457 3.14753 4.73017C2.98059 4.87576 2.87201 5.07689 2.84189 5.29634L2.83333 5.42101V21.9271C2.83333 22.3916 3.178 22.7741 3.62533 22.8352L3.75 22.8438H5.58944C5.8217 22.8439 6.04526 22.9321 6.21497 23.0906C6.38467 23.2492 6.48787 23.4663 6.5037 23.698C6.51953 23.9297 6.44682 24.1588 6.30025 24.3389C6.15368 24.5191 5.94419 24.6369 5.71411 24.6686L5.58944 24.6771H3.75C3.05318 24.6772 2.38231 24.4128 1.87297 23.9372C1.36363 23.4617 1.0538 22.8105 1.00611 22.1153L1 21.9271V5.42101C0.999914 4.72419 1.26436 4.05331 1.7399 3.54398C2.21543 3.03464 2.86659 2.72481 3.56178 2.67712L3.75 2.67101H5.90478C5.97911 1.99887 6.29881 1.37779 6.80264 0.926742C7.30646 0.475689 7.95899 0.226377 8.63522 0.226563H12.9203ZM19.0278 10.0043C19.5494 10.0043 20.0659 10.1071 20.5479 10.3067C21.0298 10.5063 21.4677 10.7989 21.8366 11.1678C22.2054 11.5366 22.498 11.9745 22.6976 12.4565C22.8973 12.9384 23 13.4549 23 13.9766V20.6988C23 21.2204 22.8973 21.737 22.6976 22.2189C22.498 22.7008 22.2054 23.1387 21.8366 23.5076C21.4677 23.8764 21.0298 24.169 20.5479 24.3686C20.0659 24.5683 19.5494 24.671 19.0278 24.671H12.3056C11.7839 24.671 11.2674 24.5683 10.7855 24.3686C10.3035 24.169 9.86563 23.8764 9.49677 23.5076C9.12792 23.1387 8.83532 22.7008 8.6357 22.2189C8.43608 21.737 8.33333 21.2204 8.33333 20.6988V13.9766C8.33333 12.9231 8.75183 11.9127 9.49677 11.1678C10.2417 10.4228 11.2521 10.0043 12.3056 10.0043H19.0278ZM19.7452 22.7155L16.3144 19.281C16.1592 19.1258 15.9535 19.0314 15.7346 19.015C15.5156 18.9986 15.2981 19.0614 15.1216 19.1918L15.0189 19.281L11.5869 22.713C11.8118 22.7925 12.0538 22.8365 12.3056 22.8365H19.0278C19.2796 22.8365 19.5203 22.7937 19.7452 22.7142L16.3144 19.281L19.7452 22.713V22.7155ZM19.0278 11.8377H12.3056C11.7383 11.8377 11.1943 12.063 10.7931 12.4641C10.392 12.8653 10.1667 13.4093 10.1667 13.9766V20.6988C10.1667 20.9506 10.2107 21.1926 10.2901 21.4174L13.7221 17.9855C14.2115 17.4959 14.8674 17.2088 15.5591 17.1816C16.2508 17.1545 16.9273 17.3891 17.4536 17.8388L17.6112 17.9855L21.0432 21.4174C21.1227 21.1926 21.1667 20.9506 21.1667 20.6988V13.9766C21.1667 13.4093 20.9413 12.8653 20.5402 12.4641C20.1391 12.063 19.595 11.8377 19.0278 11.8377ZM18.1111 13.6735C18.4353 13.6735 18.7461 13.8022 18.9754 14.0314C19.2046 14.2606 19.3333 14.5715 19.3333 14.8957C19.3333 15.2198 19.2046 15.5307 18.9754 15.7599C18.7461 15.9891 18.4353 16.1179 18.1111 16.1179C17.787 16.1179 17.4761 15.9891 17.2469 15.7599C17.0177 15.5307 16.8889 15.2198 16.8889 14.8957C16.8889 14.5715 17.0177 14.2606 17.2469 14.0314C17.4761 13.8022 17.787 13.6735 18.1111 13.6735ZM12.9203 2.0599H8.63522C8.5126 2.05541 8.39032 2.07568 8.27571 2.11951C8.1611 2.16334 8.05649 2.22983 7.96815 2.31499C7.87981 2.40016 7.80955 2.50226 7.76155 2.61519C7.71356 2.72813 7.68882 2.84958 7.68882 2.97228C7.68882 3.09499 7.71356 3.21644 7.76155 3.32938C7.80955 3.44231 7.87981 3.54441 7.96815 3.62958C8.05649 3.71474 8.1611 3.78123 8.27571 3.82506C8.39032 3.86889 8.5126 3.88916 8.63522 3.88467H12.9203C13.043 3.88916 13.1652 3.86889 13.2798 3.82506C13.3945 3.78123 13.4991 3.71474 13.5874 3.62958C13.6757 3.54441 13.746 3.44231 13.794 3.32938C13.842 3.21644 13.8667 3.09499 13.8667 2.97228C13.8667 2.84958 13.842 2.72813 13.794 2.61519C13.746 2.50226 13.6757 2.40016 13.5874 2.31499C13.4991 2.22983 13.3945 2.16334 13.2798 2.11951C13.1652 2.07568 13.043 2.05541 12.9203 2.0599Z" fill="#474747"/>
</g>
</g>
<defs>
<clipPath id="clip0_279_19805">
<rect width="24" height="24" fill="white" transform="translate(0 0.226562)"/>
</clipPath>
</defs>
</svg>
