<svg width="28" height="29" viewBox="0 0 28 29" fill="none" xmlns="http://www.w3.org/2000/svg">
<g id="Vector">
<path d="M0 21.1563C0.102367 20.9263 0.175162 20.6747 0.312949 20.4705C0.652414 19.9675 1.14147 19.7676 1.72922 19.7717C3.0867 19.7811 4.44427 19.7746 5.80181 19.7746C6.72202 19.7745 7.6423 19.7806 8.56239 19.7696C8.74787 19.7674 8.83128 19.8364 8.90998 20.0029C9.51371 21.2805 10.4972 21.9802 11.8742 22.0036C13.286 22.0277 14.6982 22.0279 16.1107 22.0041C17.4985 21.9821 18.4903 21.2831 19.0945 19.9908C19.1681 19.8332 19.2497 19.7702 19.4222 19.7706C21.709 19.7767 23.9959 19.77 26.2827 19.7769C27.3471 19.7801 27.9962 20.4686 27.9979 21.5767C28.0007 23.3576 28.0007 25.1386 27.998 26.9195C27.9964 28.0389 27.3378 28.7228 26.2568 28.723C18.0842 28.7244 9.91168 28.7256 1.73912 28.7266C0.811012 28.7272 0.272062 28.2328 2.95267e-06 27.3539L0 21.1563ZM24.7812 26.4894C24.9939 26.4867 25.2011 26.4186 25.3766 26.2937C25.5521 26.1688 25.6881 25.9926 25.7674 25.7875C25.8468 25.5823 25.8659 25.3573 25.8225 25.1408C25.779 24.9243 25.6749 24.726 25.5232 24.571C25.3715 24.416 25.179 24.3111 24.9701 24.2697C24.7612 24.2282 24.5451 24.252 24.3492 24.338C24.1533 24.4241 23.9862 24.5685 23.8691 24.7531C23.752 24.9377 23.6901 25.1543 23.6912 25.3754C23.6986 25.6718 23.8164 25.9536 24.0197 26.1614C24.2231 26.3692 24.4961 26.4868 24.7812 26.4894ZM19.3902 25.3585C19.3909 25.6547 19.503 25.9389 19.7026 26.1502C19.9022 26.3616 20.1734 26.4833 20.4582 26.4894C20.7426 26.4902 21.0158 26.3739 21.218 26.166C21.4203 25.958 21.5353 25.6754 21.5379 25.3797C21.5405 25.084 21.4305 24.7992 21.2319 24.5875C21.0333 24.3758 20.7622 24.2543 20.4778 24.2496C20.1929 24.2495 19.9194 24.3656 19.716 24.5729C19.5126 24.7803 19.3956 25.0624 19.3902 25.3585Z" fill="#4C5BD4"/>
<path d="M17.2276 10.811V11.1747C17.2276 13.6099 17.2275 16.0452 17.2273 18.4804C17.227 19.3303 16.8016 19.7726 15.9788 19.7742C14.6574 19.7766 13.336 19.7766 12.0145 19.7741C11.1953 19.7724 10.7706 19.3268 10.7704 18.4746C10.7696 16.0489 10.7695 13.6231 10.7701 11.1973C10.7701 11.0841 10.7701 10.9709 10.7701 10.811C10.6625 10.811 10.5671 10.811 10.4717 10.811C9.15933 10.8109 7.84699 10.8144 6.53469 10.8092C5.91242 10.8067 5.55314 10.498 5.40379 9.87348C5.37 9.74034 5.36653 9.60085 5.39363 9.46607C5.42074 9.33128 5.47769 9.20493 5.55995 9.09702C5.65392 8.96911 5.75668 8.84846 5.86743 8.73601C8.27645 6.22902 10.6863 3.72288 13.0969 1.21759C13.7283 0.561241 14.2721 0.562937 14.9069 1.22289C17.3365 3.74872 19.7657 6.27494 22.1946 8.80157C22.7615 9.39181 22.7663 10.0556 22.219 10.5584C21.9918 10.7672 21.7181 10.8113 21.4295 10.8112C20.1445 10.8106 18.8595 10.8105 17.5745 10.811C17.4745 10.811 17.3745 10.811 17.2276 10.811Z" fill="#4C5BD4"/>
</g>
</svg>
