<svg width="26" height="26" viewBox="0 0 26 26" fill="none" xmlns="http://www.w3.org/2000/svg">
<path id="Vector" d="M11.6072 12.9998C11.6072 13.3692 11.7539 13.7235 12.0151 13.9847C12.2763 14.2459 12.6306 14.3927 13 14.3927C13.3694 14.3927 13.7237 14.2459 13.9849 13.9847C14.2461 13.7235 14.3928 13.3692 14.3928 12.9998C14.3928 12.6304 14.2461 12.2762 13.9849 12.015C13.7237 11.7537 13.3694 11.607 13 11.607C12.6306 11.607 12.2763 11.7537 12.0151 12.015C11.7539 12.2762 11.6072 12.6304 11.6072 12.9998ZM17.4107 12.9998C17.4107 13.3692 17.5574 13.7235 17.8186 13.9847C18.0798 14.2459 18.4341 14.3927 18.8035 14.3927C19.1729 14.3927 19.5272 14.2459 19.7884 13.9847C20.0496 13.7235 20.1963 13.3692 20.1963 12.9998C20.1963 12.6304 20.0496 12.2762 19.7884 12.015C19.5272 11.7537 19.1729 11.607 18.8035 11.607C18.4341 11.607 18.0798 11.7537 17.8186 12.015C17.5574 12.2762 17.4107 12.6304 17.4107 12.9998ZM5.80366 12.9998C5.80366 13.3692 5.95041 13.7235 6.21162 13.9847C6.47282 14.2459 6.8271 14.3927 7.1965 14.3927C7.56591 14.3927 7.92018 14.2459 8.18139 13.9847C8.4426 13.7235 8.58934 13.3692 8.58934 12.9998C8.58934 12.6304 8.4426 12.2762 8.18139 12.015C7.92018 11.7537 7.56591 11.607 7.1965 11.607C6.8271 11.607 6.47282 11.7537 6.21162 12.015C5.95041 12.2762 5.80366 12.6304 5.80366 12.9998ZM24.99 7.9624C24.3342 6.40416 23.3941 5.00552 22.1956 3.80419C21.0056 2.60982 19.5929 1.66044 18.0374 1.00981C16.4415 0.339505 14.7469 0 13 0H12.942C11.1835 0.00870525 9.48018 0.356915 7.87841 1.04173C6.3363 1.69904 4.93681 2.6501 3.75793 3.84192C2.57111 5.04034 1.63965 6.43318 0.995465 7.98561C0.328062 9.59318 -0.00854062 11.3023 0.000164624 13.0608C0.010011 15.076 0.486764 17.0614 1.393 18.8614V23.272C1.393 23.626 1.53364 23.9656 1.78396 24.2159C2.03428 24.4662 2.3738 24.6068 2.72781 24.6068H7.14137C8.94131 25.5131 10.9268 25.9898 12.942 25.9997H13.0029C14.7411 25.9997 16.427 25.6631 18.0142 25.0044C19.5618 24.3615 20.9693 23.4232 22.1579 22.2419C23.3563 21.0551 24.2994 19.6681 24.9581 18.1214C25.6429 16.5197 25.9911 14.8163 25.9998 13.0579C26.0085 11.2907 25.6661 9.57577 24.99 7.9624ZM20.6055 20.6721C18.5714 22.6859 15.8727 23.7943 13 23.7943H12.9507C11.2009 23.7856 9.46277 23.3504 7.92774 22.5321L7.684 22.4015H3.59833V18.3158L3.46776 18.0721C2.64946 16.5371 2.2142 14.7989 2.20549 13.0492C2.19389 10.1561 3.29945 7.44008 5.32778 5.39435C7.3532 3.34862 10.0605 2.21694 12.9536 2.20533H13.0029C14.4538 2.20533 15.8611 2.4868 17.1872 3.04393C18.4814 3.58656 19.6421 4.36713 20.6403 5.36533C21.6356 6.36063 22.4191 7.52424 22.9617 8.81842C23.5246 10.159 23.8061 11.5809 23.8003 13.0492C23.7829 15.9393 22.6483 18.6466 20.6055 20.6721Z" fill="#333333"/>
</svg>
