<svg width="24" height="25" viewBox="0 0 24 25" fill="none" xmlns="http://www.w3.org/2000/svg">
<g id="microphone 1" clip-path="url(#clip0_279_19815)">
<g id="Vector">
<path d="M11.8261 1.22656C9.23722 1.22656 7.13044 3.2343 7.13044 5.70165V12.2266C7.13044 14.6944 9.23722 16.7016 11.8261 16.7016C14.415 16.7016 16.5217 14.6944 16.5217 12.2266V5.70165C16.5217 3.2343 14.415 1.22656 11.8261 1.22656ZM11.8261 15.7451C9.98122 15.7451 8.45514 14.4189 8.21148 12.7048H15.4402C15.197 14.4194 13.671 15.7451 11.8261 15.7451ZM15.4783 11.7483H8.17392V5.70165C8.17392 3.76135 9.81218 2.18308 11.8261 2.18308C13.84 2.18308 15.4783 3.76135 15.4783 5.70165V11.7483Z" fill="#474747"/>
<path d="M19.1304 9.83526C18.8424 9.83526 18.6087 10.0495 18.6087 10.3135V12.2266C18.6087 15.6547 15.5659 18.444 11.8261 18.444C8.08626 18.444 5.04348 15.6547 5.04348 12.2266V10.3135C5.04348 10.0495 4.80974 9.83526 4.52174 9.83526C4.23374 9.83526 4 10.0495 4 10.3135V12.2266C4 16.0206 7.23217 19.1283 11.3043 19.3761V22.27H8.69565C8.40765 22.27 8.17391 22.4843 8.17391 22.7483C8.17391 23.0123 8.40765 23.2266 8.69565 23.2266H14.9565C15.2445 23.2266 15.4783 23.0123 15.4783 22.7483C15.4783 22.4843 15.2445 22.27 14.9565 22.27H12.3478V19.3761C16.42 19.1283 19.6522 16.0206 19.6522 12.2266V10.3135C19.6522 10.0495 19.4184 9.83526 19.1304 9.83526Z" fill="#474747"/>
<path d="M11.8261 1.22656C9.23722 1.22656 7.13044 3.2343 7.13044 5.70165V12.2266C7.13044 14.6944 9.23722 16.7016 11.8261 16.7016C14.415 16.7016 16.5217 14.6944 16.5217 12.2266V5.70165C16.5217 3.2343 14.415 1.22656 11.8261 1.22656ZM11.8261 15.7451C9.98122 15.7451 8.45514 14.4189 8.21148 12.7048H15.4402C15.197 14.4194 13.671 15.7451 11.8261 15.7451ZM15.4783 11.7483H8.17392V5.70165C8.17392 3.76135 9.81218 2.18308 11.8261 2.18308C13.84 2.18308 15.4783 3.76135 15.4783 5.70165V11.7483Z" stroke="#474747" stroke-width="0.5"/>
<path d="M19.1304 9.83526C18.8424 9.83526 18.6087 10.0495 18.6087 10.3135V12.2266C18.6087 15.6547 15.5659 18.444 11.8261 18.444C8.08626 18.444 5.04348 15.6547 5.04348 12.2266V10.3135C5.04348 10.0495 4.80974 9.83526 4.52174 9.83526C4.23374 9.83526 4 10.0495 4 10.3135V12.2266C4 16.0206 7.23217 19.1283 11.3043 19.3761V22.27H8.69565C8.40765 22.27 8.17391 22.4843 8.17391 22.7483C8.17391 23.0123 8.40765 23.2266 8.69565 23.2266H14.9565C15.2445 23.2266 15.4783 23.0123 15.4783 22.7483C15.4783 22.4843 15.2445 22.27 14.9565 22.27H12.3478V19.3761C16.42 19.1283 19.6522 16.0206 19.6522 12.2266V10.3135C19.6522 10.0495 19.4184 9.83526 19.1304 9.83526Z" stroke="#474747" stroke-width="0.5"/>
</g>
</g>
<defs>
<clipPath id="clip0_279_19815">
<rect width="24" height="24" fill="white" transform="translate(0 0.226562)"/>
</clipPath>
</defs>
</svg>
