<svg width="12" height="13" viewBox="0 0 12 13" fill="none" xmlns="http://www.w3.org/2000/svg">
<path id="Vector" d="M11.1429 7.58496H6.85714V11.8707C6.85714 12.098 6.76684 12.316 6.60609 12.4768C6.44535 12.6375 6.22733 12.7278 6 12.7278C5.77267 12.7278 5.55465 12.6375 5.39391 12.4768C5.23316 12.316 5.14286 12.098 5.14286 11.8707V7.58496H0.857143C0.629814 7.58496 0.411797 7.49465 0.251051 7.3339C0.090306 7.17316 0 6.95514 0 6.72781C0 6.50048 0.090306 6.28247 0.251051 6.12172C0.411797 5.96098 0.629814 5.87067 0.857143 5.87067H5.14286V1.58496C5.14286 1.35763 5.23316 1.13961 5.39391 0.978865C5.55465 0.818119 5.77267 0.727814 6 0.727814C6.22733 0.727814 6.44535 0.818119 6.60609 0.978865C6.76684 1.13961 6.85714 1.35763 6.85714 1.58496V5.87067H11.1429C11.3702 5.87067 11.5882 5.96098 11.7489 6.12172C11.9097 6.28247 12 6.50048 12 6.72781C12 6.95514 11.9097 7.17316 11.7489 7.3339C11.5882 7.49465 11.3702 7.58496 11.1429 7.58496Z" fill="#333333"/>
</svg>
