<svg width="16" height="17" viewBox="0 0 16 17" fill="none" xmlns="http://www.w3.org/2000/svg">
<path id="Vector" d="M13.5179 2.92923C13.5179 2.46559 13.5165 2.04093 13.5182 1.61628C13.5203 1.11395 13.8702 0.742155 14.3403 0.739615C14.8193 0.737024 15.172 1.1092 15.1725 1.62266C15.1736 2.87447 15.1736 4.12629 15.1724 5.37811C15.1717 5.90467 14.8242 6.25097 14.296 6.25157C13.0433 6.253 11.7906 6.25302 10.5379 6.25164C10.0276 6.25115 9.65294 5.894 9.65684 5.4168C9.66067 4.94723 10.0332 4.59947 10.537 4.59853C11.2266 4.59725 11.9161 4.59714 12.6057 4.5982C12.6611 4.5982 12.7165 4.5982 12.8071 4.5982C12.4943 4.22565 12.1357 3.8941 11.7397 3.61141C8.12556 1.00573 3.07237 2.77981 1.87925 7.07179C0.88586 10.6453 3.25214 14.3545 6.921 14.9748C10.4231 15.567 13.7157 13.2127 14.2661 9.71668C14.3105 9.40421 14.336 9.08936 14.3425 8.77384C14.3601 8.27322 14.7062 7.90452 15.177 7.90631C15.6488 7.9081 16.0012 8.28284 16 8.78139C15.9903 12.6407 13.1459 15.9834 9.3338 16.6153C7.31143 16.9571 5.23495 16.5092 3.53375 15.3639C1.83255 14.2187 0.636757 12.4639 0.19365 10.4623C-0.687957 6.54943 1.51393 2.51912 5.30686 1.22012C8.28923 0.198725 10.9951 0.7731 13.3872 2.82427C13.4204 2.85276 13.4554 2.87919 13.5179 2.92923Z" fill="white"/>
</svg>
