<svg width="20" height="21" viewBox="0 0 20 21" fill="none" xmlns="http://www.w3.org/2000/svg">
<g id="Group 630824">
<g id="Group 630823">
<path id="Vector" d="M0.936598 16.7848L0.934349 16.7825C0.800058 16.6486 0.692829 16.4901 0.618515 16.3156C0.537211 16.1177 0.499251 15.924 0.499251 15.7266L0.499251 5.72656L0.499251 5.72562C0.498879 5.5282 0.537741 5.33269 0.613578 5.15042C0.689412 4.96816 0.800711 4.80278 0.941018 4.66391L0.943555 4.66136C1.08159 4.52273 1.2458 4.41291 1.42663 4.33827C1.60746 4.26363 1.80132 4.22565 1.99695 4.22656L1.99925 4.22656L13.9993 4.22656C14.147 4.22656 14.2879 4.29205 14.3846 4.40717C14.3847 4.40733 14.3848 4.40748 14.385 4.40764L19.3841 10.4065C19.5386 10.5922 19.5386 10.862 19.3841 11.0476L14.3857 17.0456C14.3855 17.0459 14.3852 17.0462 14.385 17.0464C14.2882 17.161 14.1471 17.2266 13.9992 17.2266L1.99925 17.2266L1.99831 17.2266C1.8009 17.2269 1.60538 17.1881 1.42311 17.1122C1.24085 17.0364 1.07547 16.9251 0.936598 16.7848Z" stroke="#474747"/>
</g>
</g>
</svg>
