<svg width="16" height="17" viewBox="0 0 16 17" fill="none" xmlns="http://www.w3.org/2000/svg">
<g id="Group 634733">
<g id="Group 634732">
<path id="Vector" d="M7.875 9.60156C8.35825 9.60156 8.75 9.20981 8.75 8.72656C8.75 8.24331 8.35825 7.85156 7.875 7.85156C7.39175 7.85156 7 8.24331 7 8.72656C7 9.20981 7.39175 9.60156 7.875 9.60156Z" fill="#4C5BD4" stroke="#4C5BD4" stroke-width="2" stroke-linecap="round" stroke-linejoin="round"/>
<path id="Vector_2" d="M7.875 3.47656C8.35825 3.47656 8.75 3.08481 8.75 2.60156C8.75 2.11831 8.35825 1.72656 7.875 1.72656C7.39175 1.72656 7 2.11831 7 2.60156C7 3.08481 7.39175 3.47656 7.875 3.47656Z" fill="#4C5BD4" stroke="#4C5BD4" stroke-width="2" stroke-linecap="round" stroke-linejoin="round"/>
<path id="Vector_3" d="M7.875 15.7266C8.35825 15.7266 8.75 15.3348 8.75 14.8516C8.75 14.3683 8.35825 13.9766 7.875 13.9766C7.39175 13.9766 7 14.3683 7 14.8516C7 15.3348 7.39175 15.7266 7.875 15.7266Z" fill="#4C5BD4" stroke="#4C5BD4" stroke-width="2" stroke-linecap="round" stroke-linejoin="round"/>
</g>
</g>
</svg>
