<svg width="16" height="16" viewBox="0 0 16 16" fill="none" xmlns="http://www.w3.org/2000/svg">
<path id="Vector" d="M14.8691 0.226563H8.08375C7.93379 0.226563 7.78996 0.289777 7.68392 0.402299C7.57788 0.514821 7.51831 0.667433 7.51831 0.826563V2.62656C7.51831 2.78569 7.57788 2.93831 7.68392 3.05083C7.78996 3.16335 7.93379 3.22656 8.08375 3.22656H13.1728V12.2266H4.69108V4.71541H5.98947C6.0981 4.71541 6.20444 4.68221 6.29575 4.61977C6.38707 4.55733 6.4595 4.46831 6.50439 4.36334C6.54928 4.25837 6.56472 4.1419 6.54887 4.02787C6.53302 3.91383 6.48655 3.80705 6.41501 3.7203L3.703 0.431463C3.64993 0.367102 3.58451 0.315523 3.51111 0.280184C3.43772 0.244845 3.35806 0.226562 3.27746 0.226562C3.19687 0.226562 3.1172 0.244845 3.04381 0.280184C2.97042 0.315523 2.90499 0.367102 2.85192 0.431463L0.139907 3.7203C0.0683724 3.80705 0.0219011 3.91383 0.00605134 4.02787C-0.00979844 4.1419 0.0056442 4.25837 0.0505323 4.36334C0.0954204 4.46831 0.167854 4.55733 0.259169 4.61977C0.350485 4.68221 0.456817 4.71541 0.565448 4.71541H1.86385V14.0266C1.86385 14.3448 1.98299 14.65 2.19508 14.8751C2.40716 15.1001 2.69481 15.2266 2.99474 15.2266H14.8691C15.169 15.2266 15.4567 15.1001 15.6688 14.8751C15.8809 14.65 16 14.3448 16 14.0266V1.42656C16 1.1083 15.8809 0.803079 15.6688 0.578035C15.4567 0.352991 15.169 0.226563 14.8691 0.226563Z" fill="white"/>
</svg>
