<svg width="21" height="21" viewBox="0 0 21 21" fill="none" xmlns="http://www.w3.org/2000/svg">
<g id="Vector">
<path d="M4.02474 6.55887C2.98701 6.79918 2.01241 7.35678 1.29605 8.14803C0.712503 8.79285 1.03442 9.58895 1.61692 10.1051C2.01781 10.4885 2.40602 10.8879 2.79426 11.2873C3.42172 11.9328 4.04925 12.5784 4.73043 13.157C4.16498 13.9648 3.57839 14.7552 2.99228 15.545C2.16272 16.6628 1.33412 17.7793 0.567759 18.9422C0.218812 19.7472 1.299 20.427 1.95185 19.7834C3.60685 18.4459 5.25712 17.1026 6.90265 15.7536C7.06896 15.6172 7.15338 15.6307 7.29814 15.778C8.36273 16.8606 9.43337 17.937 10.5101 19.0073C11.94 20.5397 13.0345 18.6458 13.6666 17.424C13.8063 17.1297 13.9162 16.8358 13.9959 16.5427L4.02474 6.55887Z" fill="#4C5BD4"/>
<path d="M14.9158 11.4827C15.0771 11.3221 15.2387 11.1616 15.4003 11.0011C15.8796 10.5253 16.3588 10.0495 16.83 9.56726C16.9531 9.44337 17.0586 9.44287 17.2017 9.53292C17.4452 9.69234 17.7199 9.79784 18.0074 9.84239C18.2949 9.88694 18.5886 9.86949 18.8688 9.79122C20.2414 9.43399 21.2066 7.46748 19.8369 6.06351C19.0171 5.22328 18.1863 4.39393 17.3554 3.56458C17.059 3.26866 16.7625 2.97273 16.4666 2.67631C16.3115 2.52104 16.1568 2.36544 16.0021 2.20984C15.4955 1.7004 14.9889 1.19095 14.4715 0.692823C12.5466 -1.19005 9.60467 1.37986 11.1014 3.52868L9.03326 5.59269L14.9158 11.4827Z" fill="#4C5BD4"/>
<path fill-rule="evenodd" clip-rule="evenodd" d="M1.67874 1.21934C1.89945 0.998345 2.2573 0.998345 2.47801 1.21934L19.3655 18.1283C19.5862 18.3493 19.5862 18.7076 19.3655 18.9286C19.1448 19.1496 18.7869 19.1496 18.5662 18.9286L1.67874 2.01962C1.45803 1.79863 1.45803 1.44033 1.67874 1.21934Z" fill="#4C5BD4"/>
</g>
</svg>
