<svg width="26" height="27" viewBox="0 0 26 27" fill="none" xmlns="http://www.w3.org/2000/svg">
<g id="Group 1000002696">
<path id="Vector" d="M9.13442 21.209L5.25536 23.3248C5.02773 23.4489 4.82316 23.6015 4.63281 23.7678C6.89441 25.6746 9.81388 26.825 13.0037 26.825C16.1699 26.825 19.0707 25.6918 21.3259 23.811C21.1179 23.6353 20.8923 23.4774 20.6421 23.3528L16.4883 21.2762C15.9516 21.0079 15.6126 20.4594 15.6126 19.8594V18.2298C15.7294 18.0968 15.8628 17.9261 16.0056 17.7245C16.5717 16.9249 17 16.0453 17.2968 15.1225C17.8295 14.9582 18.222 14.4662 18.222 13.8814V12.1419C18.222 11.7592 18.0518 11.4173 17.7874 11.1779V8.66325C17.7874 8.66325 18.3039 4.75 13.0042 4.75C7.70436 4.75 8.22095 8.66325 8.22095 8.66325V11.1779C7.95603 11.4173 7.78629 11.7592 7.78629 12.1419V13.8814C7.78629 14.3396 8.02717 14.7428 8.38775 14.9759C8.82241 16.868 9.96057 18.2298 9.96057 18.2298V19.8192C9.96008 20.3981 9.64316 20.9313 9.13442 21.209Z" fill="#E7ECED"/>
<g id="Group">
<path id="Vector_2" d="M13.2227 0.830061C6.04398 0.707419 0.124583 6.42742 0.00193721 13.6059C-0.0677259 17.6761 1.74646 21.3343 4.63502 23.767C4.8239 23.6021 5.02651 23.4511 5.25169 23.3284L9.13074 21.2126C9.63948 20.9349 9.9564 20.4017 9.9564 19.8218V18.2324C9.9564 18.2324 8.81775 16.8706 8.38358 14.9785C8.02349 14.7455 7.78212 14.3427 7.78212 13.884V12.1445C7.78212 11.7618 7.95236 11.4199 8.21678 11.1805V8.66588C8.21678 8.66588 7.7002 4.75263 13 4.75263C18.2998 4.75263 17.7832 8.66588 17.7832 8.66588V11.1805C18.0481 11.4199 18.2178 11.7618 18.2178 12.1445V13.884C18.2178 14.4688 17.8254 14.9608 17.2926 15.1252C16.9958 16.0479 16.5675 16.9275 16.0014 17.7271C15.8586 17.9287 15.7252 18.0995 15.6084 18.2324V19.8621C15.6084 20.462 15.9474 21.011 16.4841 21.2788L20.6379 23.3554C20.8871 23.48 21.1123 23.6375 21.3198 23.8126C24.1211 21.4765 25.9308 17.9837 25.998 14.0503C26.1217 6.87187 20.4019 0.952702 13.2227 0.830061Z" fill="#556080"/>
</g>
</g>
</svg>
