<svg width="220" height="48" viewBox="0 0 220 48" fill="none" xmlns="http://www.w3.org/2000/svg">
<g id="Asset 1 1" clip-path="url(#clip0_3978_9760)">
<g id="Layer 2">
<g id="logo 365">
<g id="T&#195;&#172;m vi&#225;&#187;&#135;c">
<path id="Vector" d="M112.409 10.0287H104.774V29.5231H98.86V10.0287H91.2876V5.03906H112.427L112.409 10.0287Z" fill="#4C5BD4"/>
<path id="Vector_2" d="M119.671 10.0963H116.416L109.813 4.6875H115.907L119.671 10.0963ZM119.094 29.5231H113.477V11.3268H119.094V29.5231Z" fill="#4C5BD4"/>
<path id="Vector_3" d="M147.594 29.5244H142.185V18.6436C142.185 17.5303 142.027 16.7775 141.734 16.3899C141.36 16.0744 140.666 15.9392 139.647 15.9392L137.56 15.9887V29.5244H132.066V15.9707H127.581V29.5244H122.15V11.3281H139.99C142.583 11.3281 144.496 11.86 145.728 12.9237C146.96 13.9875 147.576 15.7078 147.576 18.0847L147.594 29.5244Z" fill="#4C5BD4"/>
<path id="Vector_4" d="M178.041 11.3281L170.049 29.5244H164.596L156.992 11.3281H163.018L167.485 22.8625L172.231 11.3281H178.041Z" fill="#4C5BD4"/>
<path id="Vector_5" d="M184.685 10.1913H179.064V5.00781H184.685V10.1913ZM184.685 29.5234H179.064V11.3271H184.685V29.5234Z" fill="#4C5BD4"/>
<path id="Vector_6" d="M202.899 29.5051H195.836C192.879 29.5051 190.634 28.7343 189.102 27.1928C187.569 25.6513 186.797 23.3871 186.785 20.4002C186.785 17.4433 187.557 15.1897 189.102 13.6391C190.646 12.0886 192.891 11.3178 195.836 11.3268H202.899V15.7756H196.476C194.934 15.7756 193.916 15.9694 193.425 16.3481C193.164 16.5781 192.959 16.8655 192.828 17.1877C192.697 17.5099 192.642 17.8581 192.667 18.2051H202.899V22.6674H192.667C192.642 22.9959 192.686 23.3262 192.796 23.6367C192.906 23.9473 193.081 24.2312 193.307 24.4703C193.734 24.876 194.786 25.0788 196.462 25.0788H202.917L202.899 29.5051ZM202.128 10.0963H198.923L196.282 7.76603L193.578 10.0963H190.423L194.168 4.6875H198.405L202.128 10.0963ZM198.612 36.2391H193.884V31.1953H198.612V36.2391Z" fill="#4C5BD4"/>
<path id="Vector_7" d="M220 29.5062H213.415C212.678 29.51 211.942 29.4664 211.211 29.3755C210.601 29.2924 209.999 29.1659 209.408 28.9969C208.369 28.6268 207.419 28.0451 206.618 27.2886C206.211 26.8847 205.858 26.4302 205.567 25.9364C205.228 25.3996 204.926 24.8392 204.666 24.2597C204.447 23.6737 204.277 23.0706 204.157 22.4567C204.044 21.8002 203.99 21.135 203.994 20.469C203.986 19.1648 204.213 17.8699 204.666 16.6467C205.115 15.4822 205.779 14.4121 206.622 13.4916C207.427 12.767 208.379 12.2243 209.412 11.9005C210.712 11.5077 212.066 11.3251 213.424 11.3596H220.009V15.903H214.744C213.864 15.8864 212.984 15.9528 212.117 16.1013C211.547 16.2239 211.023 16.5016 210.602 16.9036C209.857 17.5857 209.486 18.7727 209.489 20.4645C209.464 21.2911 209.632 22.1122 209.98 22.8624C210.271 23.514 210.739 24.0702 211.332 24.467L212.401 24.8456C212.694 24.8907 212.996 24.9222 213.302 24.9448C213.609 24.9673 214.1 24.9763 214.749 24.9763H220.004L220 29.5062Z" fill="#4C5BD4"/>
<path id="Vector_8" d="M19.8595 22.8036C19.8595 24.9071 19.1864 26.5523 17.8402 27.7392C16.494 28.9261 14.6039 29.5166 12.1699 29.5106H0V24.6066H10.0695C11.2504 24.6066 12.1098 24.4098 12.6477 24.0161C12.9248 23.79 13.1429 23.5 13.2834 23.1711C13.4239 22.8422 13.4826 22.4841 13.4545 22.1275C13.4705 21.7819 13.4092 21.4371 13.2751 21.1182C13.141 20.7993 12.9374 20.5143 12.6792 20.284C12.1443 19.8573 11.2744 19.644 10.0695 19.644L1.85703 19.6755V14.7625H9.9162C11.1332 14.7625 12.0076 14.5687 12.544 14.1901C12.8132 13.9701 13.0243 13.6873 13.1587 13.3667C13.2931 13.046 13.3467 12.6973 13.3148 12.3511C13.3362 12.0112 13.2777 11.671 13.1438 11.3579C13.01 11.0448 12.8045 10.7674 12.544 10.5481C12.2424 10.3097 11.8887 10.146 11.5118 10.0703C10.9858 9.9699 10.4517 9.91859 9.9162 9.91708H0V5.01758H11.647C14.3515 5.01758 16.3843 5.55846 17.7725 6.64023C19.1608 7.722 19.8324 9.4348 19.8324 11.7426C19.852 12.8208 19.5844 13.8849 19.0571 14.8256C18.5113 15.7334 17.8058 16.5351 16.9747 17.192C17.8341 17.6879 18.5429 18.4075 19.0256 19.2744C19.617 20.354 19.9051 21.5735 19.8595 22.8036Z" fill="#4C5BD4"/>
<path id="Vector_9" d="M44.1722 21.997C44.1722 24.5692 43.2407 26.5224 41.3777 27.8566C39.5146 29.1907 36.8252 29.8473 33.3095 29.8263C29.1717 29.8263 26.1112 28.8302 24.128 26.8379C22.1447 24.8456 21.1636 21.7386 21.1847 17.5167C21.1847 13.2437 22.2364 10.0885 24.3398 8.0512C26.4433 6.01387 29.6901 5.00272 34.0802 5.01774H42.8876V9.92176H33.954C31.7514 9.91875 30.1468 10.3454 29.1402 11.2018C28.6598 11.6174 28.2924 12.1477 28.0719 12.7434C27.7874 13.4601 27.648 14.2261 27.6617 14.9971H35.6082C38.4749 14.9971 40.6159 15.568 42.0312 16.7098C43.4465 17.8517 44.1602 19.6141 44.1722 21.997ZM37.8123 22.2584C37.8375 21.9328 37.7971 21.6054 37.6933 21.2956C37.5896 20.9859 37.4246 20.7002 37.2083 20.4555C36.6813 20.0429 36.0185 19.8434 35.3513 19.8966H27.6888C27.6888 21.5688 28.1621 22.8354 29.1041 23.6873C30.0461 24.5391 31.493 24.9989 33.5213 24.9989C35.0628 24.9989 36.1581 24.775 36.8072 24.3273C37.1348 24.0955 37.3975 23.7837 37.5703 23.4215C37.7431 23.0593 37.8202 22.6589 37.7943 22.2584H37.8123Z" fill="#4C5BD4"/>
<path id="Vector_10" d="M66.4927 22.087C66.4927 24.4909 65.7415 26.3284 64.2391 27.5995C62.7366 28.8706 60.6061 29.5046 57.8476 29.5016H44.9565V24.6066H56.7343C57.8972 24.6066 58.713 24.4098 59.1818 24.0161C59.6506 23.6225 59.8759 22.9794 59.8579 22.087C59.8579 21.1855 59.6325 20.5049 59.1818 20.1037C58.7311 19.7026 57.8972 19.5268 56.7343 19.5268H44.9565V5.01758H65.2938V9.92159H51.0054V14.6633H58.9699C61.2807 14.6633 63.1317 15.3034 64.523 16.5835C65.1668 17.2596 65.668 18.0582 65.9969 18.9318C66.3421 19.9473 66.5098 21.0146 66.4927 22.087Z" fill="#4C5BD4"/>
<path id="Vector_11" fill-rule="evenodd" clip-rule="evenodd" d="M69.4133 37.2676L78.4281 29.1543L88.2271 32.003C88.2271 32.003 94.6906 34.7074 91.0757 39.2508C89.4531 40.8509 87.9206 42.3699 82.2188 40.8374C80.6096 40.2965 69.4133 37.2676 69.4133 37.2676Z" fill="#4C5BD4"/>
<path id="Vector_12" fill-rule="evenodd" clip-rule="evenodd" d="M17.2947 31.5523C17.3939 31.7687 17.4705 32.003 17.5697 32.2059C17.7446 32.588 17.9386 32.9611 18.1511 33.3237C18.6826 34.2357 19.3261 35.0776 20.0668 35.8298C20.9926 36.7713 22.0566 37.5662 23.2219 38.1872C24.7063 38.9483 26.2999 39.4744 27.9456 39.7467C30.1121 40.1003 32.3161 40.1639 34.4993 39.936C37.4468 39.6315 40.3556 39.0274 43.1805 38.1331C51.3163 35.627 58.8301 31.9354 65.19 26.2201L65.4785 25.9587C69.8822 21.9516 75.2955 16.3264 74.6284 9.8223C74.2047 5.71158 69.2196 3.41283 65.6903 2.57446C65.3565 2.52167 65.0564 2.34074 64.8538 2.07015C64.6513 1.79955 64.5623 1.46063 64.6057 1.12543C64.6491 0.790229 64.8216 0.485191 65.0864 0.275166C65.3513 0.0651411 65.6876 -0.0333071 66.0239 0.000751323C73.132 0.172031 80.3933 2.09668 82.8228 8.19514L82.8634 8.30783C83.4403 10.2919 83.6345 12.3676 83.4358 14.4243C83.0503 18.3056 81.6906 22.0266 79.4828 25.242C75.877 30.6508 70.671 34.8111 65.1945 38.1736C60.6441 40.9899 55.7573 43.222 50.6492 44.8175C47.0233 45.9802 43.3091 46.8469 39.5431 47.4092C35.3242 48.0042 30.925 48.1349 26.7557 47.0937C22.5864 46.0525 18.8543 43.6906 16.4744 40.0352C15.0614 37.7859 14.0758 35.2952 13.5671 32.6882C13.4696 32.2781 13.4838 31.8494 13.6083 31.4467C13.7327 31.0439 13.9629 30.682 14.2748 30.3984C15.1222 29.7494 16.4969 30.3353 17.0558 31.1016C17.1534 31.2416 17.2336 31.393 17.2947 31.5523Z" fill="#4C5BD4"/>
<path id="Vector_13" fill-rule="evenodd" clip-rule="evenodd" d="M20.0083 31.1017C20.0083 31.1017 32.4892 42.3702 53.9172 30.2949C51.5283 33.1165 24.8492 46.0211 20.0083 31.1017Z" fill="#4C5BD4"/>
</g>
</g>
</g>
</g>
<defs>
<clipPath id="clip0_3978_9760">
<rect width="220" height="47.8682" fill="white"/>
</clipPath>
</defs>
</svg>
